<?xml version="1.0" standalone="no"?><svg xmlns="http://www.w3.org/2000/svg" viewBox="0 0 1440 320"><path fill="#84599C" fill-opacity="1" d="M0,224L18.5,208C36.9,192,74,160,111,170.7C147.7,181,185,235,222,234.7C258.5,235,295,181,332,165.3C369.2,149,406,171,443,149.3C480,128,517,64,554,64C590.8,64,628,128,665,154.7C701.5,181,738,171,775,149.3C812.3,128,849,96,886,101.3C923.1,107,960,149,997,165.3C1033.8,181,1071,171,1108,176C1144.6,181,1182,203,1218,181.3C1255.4,160,1292,96,1329,74.7C1366.2,53,1403,75,1422,85.3L1440,96L1440,0L1421.5,0C1403.1,0,1366,0,1329,0C1292.3,0,1255,0,1218,0C1181.5,0,1145,0,1108,0C1070.8,0,1034,0,997,0C960,0,923,0,886,0C849.2,0,812,0,775,0C738.5,0,702,0,665,0C627.7,0,591,0,554,0C516.9,0,480,0,443,0C406.2,0,369,0,332,0C295.4,0,258,0,222,0C184.6,0,148,0,111,0C73.8,0,37,0,18,0L0,0Z"></path></svg>