<?xml version="1.0" standalone="no"?><svg xmlns="http://www.w3.org/2000/svg" viewBox="0 0 1440 320"><path fill="#273036" fill-opacity="1" d="M0,224L18.5,208C36.9,192,74,160,111,170.7C147.7,181,185,235,222,234.7C258.5,235,295,181,332,165.3C369.2,149,406,171,443,149.3C480,128,517,64,554,64C590.8,64,628,128,665,154.7C701.5,181,738,171,775,149.3C812.3,128,849,96,886,101.3C923.1,107,960,149,997,165.3C1033.8,181,1071,171,1108,176C1144.6,181,1182,203,1218,181.3C1255.4,160,1292,96,1329,74.7C1366.2,53,1403,75,1422,85.3L1440,96L1440,320L1421.5,320C1403.1,320,1366,320,1329,320C1292.3,320,1255,320,1218,320C1181.5,320,1145,320,1108,320C1070.8,320,1034,320,997,320C960,320,923,320,886,320C849.2,320,812,320,775,320C738.5,320,702,320,665,320C627.7,320,591,320,554,320C516.9,320,480,320,443,320C406.2,320,369,320,332,320C295.4,320,258,320,222,320C184.6,320,148,320,111,320C73.8,320,37,320,18,320L0,320Z"></path></svg>